<?xml version="1.0" encoding="UTF-8"?>
<!-- Generator: visioncortex VTracer 0.6.12 -->
<svg version="1.1" xmlns="http://www.w3.org/2000/svg" width="382" height="382">
<path d="M0 0 C126.06 0 252.12 0 382 0 C382 126.06 382 252.12 382 382 C255.94 382 129.88 382 0 382 C0 255.94 0 129.88 0 0 Z " fill="#FFFFFF" transform="translate(0,0)"/>
<path d="M0 0 C5.19759 4.33133 7.19834 9.93961 9.125 16.1875 C13.5441 30.16389 18.59645 43.91028 23.74487 57.6315 C29.17619 72.11939 34.37247 86.66815 39.37012 101.31201 C40.87034 105.68198 42.43502 110.02783 44 114.375 C45.94848 119.83075 47.85076 125.30268 49.75244 130.7749 C51.099 134.63804 52.47664 138.47653 53.96094 142.28906 C55.25 145.875 55.25 145.875 55.25 148.875 C55.91 148.875 56.57 148.875 57.25 148.875 C57.30261 148.32787 57.35522 147.78075 57.40942 147.21704 C58.10309 140.13412 58.89462 133.06357 59.6922 125.9917 C61.66551 108.46118 63.52954 90.91939 65.375 73.375 C65.50297 72.15997 65.63094 70.94494 65.76279 69.69308 C66.13685 66.13922 66.50995 62.58525 66.88281 59.03125 C66.94232 58.46623 66.94232 58.46623 67.24348 55.60689 C67.79089 50.38354 68.32366 45.15984 68.8125 39.93066 C68.89918 39.01571 68.98586 38.10076 69.07516 37.15808 C69.23232 35.48415 69.38486 33.80977 69.53152 32.13489 C70.53283 21.50626 74.01645 12.15588 82.32031 5.12109 C90.29399 -0.64385 97.64846 -1.73723 107.32812 -0.65625 C116.01046 0.92236 123.34331 5.57951 128.60156 12.70703 C135.72331 24.4656 132.37452 41.21556 130.56641 54.06641 C130.29474 56.04935 130.02308 58.03229 129.75165 60.01526 C129.45881 62.1479 129.16338 64.28017 128.8674 66.41238 C128.23213 70.99442 127.60829 75.57797 126.98657 80.16187 C126.76844 81.76951 126.5503 83.37716 126.33215 84.9848 C126.27731 85.38903 126.27731 85.38903 125.99974 87.43465 C125.43171 91.61704 124.86143 95.79911 124.29126 99.9812 C117.01783 153.34552 117.01783 153.34552 113.8125 178.0625 C113.69524 178.96457 113.57797 179.86664 113.45715 180.79605 C112.43012 188.69735 111.40964 196.59938 110.41249 204.50452 C104.02791 255.02858 104.02791 255.02858 83.9375 271.625 C73.94654 279.01796 60.99642 285.70213 48.25 283.875 C43.46793 281.98022 41.80668 279.42441 39.6875 274.9375 C38.85377 272.92533 38.04225 270.90386 37.25 268.875 C36.82719 267.83473 36.40437 266.79445 35.96875 265.72266 C33.85068 260.39519 31.95551 255.05504 30.3125 249.5625 C28.92234 244.91948 27.35704 240.40158 25.625 235.875 C22.95318 228.88305 20.48541 221.83177 18.0625 214.75 C13.32683 200.93128 8.50717 187.14245 3.66513 173.36066 C2.80983 170.92552 1.95535 168.4901 1.10172 166.05438 C-0.11488 162.58365 -1.3344 159.11397 -2.55469 155.64453 C-2.91794 154.60691 -3.28118 153.56929 -3.65544 152.50023 C-5.86707 146.22564 -8.22531 140.0304 -10.75 133.875 C-12.89093 137.86177 -13.68192 141.91052 -14.5625 146.3125 C-18.42868 164.49856 -25.59127 181.11092 -41.6875 191.6875 C-53.10789 198.20357 -67.15995 205.07599 -80.5625 202 C-88.13241 196.9534 -91.86573 187.09249 -95.875 179.1875 C-100.04346 171.06541 -104.27884 162.9943 -108.6875 155 C-113.78837 145.73361 -118.66923 136.36327 -123.50806 126.95776 C-127.92779 118.39148 -132.49622 109.91628 -137.19531 101.5 C-137.66453 100.65309 -138.13375 99.80617 -138.61719 98.93359 C-139.03082 98.19424 -139.44444 97.45488 -139.87061 96.69312 C-140.75 94.875 -140.75 94.875 -140.75 92.875 C-141.41 92.875 -142.07 92.875 -142.75 92.875 C-142.78738 93.56723 -142.82477 94.25945 -142.86328 94.97266 C-144.57047 120.37963 -144.57047 120.37963 -152.75 129.875 C-155.56043 132.32112 -158.4491 134.15944 -161.75 135.875 C-162.38809 136.21402 -163.02617 136.55305 -163.68359 136.90234 C-171.03355 140.21823 -179.49014 139.99294 -187 137.3125 C-194.72505 133.78531 -200.19365 128.55671 -203.75 120.875 C-206.09792 111.4333 -204.67257 101.57246 -203.14062 92.10938 C-202.97254 91.0323 -202.80446 89.95523 -202.63129 88.84552 C-202.2759 86.58267 -201.916 84.32052 -201.55176 82.05908 C-201.0039 78.64929 -200.47355 75.2371 -199.94531 71.82422 C-193.33869 29.78324 -193.33869 29.78324 -176.15625 15.75781 C-173.73952 14.01985 -171.29721 12.41429 -168.75 10.875 C-168.09516 10.47668 -167.44031 10.07836 -166.76562 9.66797 C-157.24189 4.41417 -144.87895 1.80832 -134.21484 4.51953 C-126.56324 8.72731 -123.24845 18.06586 -119.375 25.5 C-118.10003 27.93163 -116.82078 30.36098 -115.53906 32.78906 C-115.38234 33.08659 -115.38234 33.08659 -114.5892 34.59229 C-111.96393 39.54456 -109.16626 44.38158 -106.29395 49.19385 C-104.7037 51.95541 -103.27356 54.76219 -101.875 57.625 C-99.64314 62.17051 -97.25568 66.6011 -94.75 71 C-90.83403 77.88646 -87.02744 84.83018 -83.26392 91.80096 C-82.32692 93.53581 -81.38711 95.26914 -80.44727 97.00244 C-80.15755 97.54022 -80.15755 97.54022 -78.69141 100.26172 C-78.17264 101.22296 -77.65387 102.18419 -77.11938 103.17456 C-75.83863 105.70021 -74.75478 108.22915 -73.75 110.875 C-73.09 110.875 -72.43 110.875 -71.75 110.875 C-71.76966 109.57933 -71.78932 108.28366 -71.80957 106.94873 C-71.80699 102.14006 -71.38076 97.46408 -70.79688 92.69531 C-70.74613 92.26919 -70.74613 92.26919 -70.48932 90.11276 C-70.27346 88.31573 -70.05481 86.51903 -69.8335 84.72266 C-69.50524 82.04276 -69.19153 79.36144 -68.87891 76.67969 C-67.82334 67.86841 -66.53961 59.15783 -64.72266 50.46875 C-64.56203 49.69967 -64.4014 48.9306 -64.2359 48.13821 C-60.35741 30.40491 -50.22477 17.36848 -34.9375 7.5625 C-25.50765 2.2431 -10.88625 -4.45347 0 0 Z " fill="#000000" transform="translate(228.75,70.125)"/>
</svg>
